<svg width="1123" height="1100" xmlns="http://www.w3.org/2000/svg" xmlns:xlink="http://www.w3.org/1999/xlink" overflow="scroll" viewBox="0 0 1123 1100"><g clip-path="url(#clip0)"><rect x="87.5" y="46.4793" width="66.0001" height="21.9902" stroke="#000000" stroke-width="1.33393" stroke-miterlimit="8" fill="none"/><text font-family="SimHei,SimHei_MSFontService,sans-serif" font-weight="400" font-size="10" transform="matrix(1 0 0 0.999555 100.138 61)">图片输入<tspan fill="#767171" font-size="10" x="73.5894" y="-2.00089">original_images</tspan><tspan fill="#767171" font-size="10" x="73.5894" y="23.0102">[List&lt;tensor&gt;]</tspan></text><rect x="77.5" y="154.431" width="87" height="19.9911" stroke="#000000" stroke-width="1.33393" stroke-miterlimit="8" fill="none"/><text font-family="SimHei,SimHei_MSFontService,sans-serif" font-weight="400" font-size="10" transform="matrix(1 0 0 0.999555 95.4985 168)">归一化图片<tspan fill="#767171" font-size="10" x="78.229" y="2.00089">images_norm</tspan><tspan fill="#767171" font-size="10" x="78.229" y="27.012">[</tspan><tspan fill="#767171" font-size="10" x="83.398" y="27.012">ImageList</tspan><tspan fill="#767171" font-size="10" x="129.919" y="27.012">{</tspan><tspan fill="#767171" font-size="10" x="83.398" y="39.0174">“device”:</tspan><tspan fill="#767171" font-size="10" x="145.759" y="39.0174">训练环境，</tspan><tspan fill="#767171" font-size="10" x="78.229" y="52.0232">“</tspan><tspan fill="#767171" font-size="10" x="88.7337" y="52.0232">imageSize</tspan><tspan fill="#767171" font-size="10" x="135.254" y="52.0232">”:[list&lt;(</tspan><tspan fill="#767171" font-size="10" x="187.111" y="52.0232">int,int</tspan><tspan fill="#767171" font-size="10" x="223.294" y="52.0232">)&gt;] </tspan><tspan fill="#767171" font-size="10" x="243.969" y="52.0232">图片大小</tspan><tspan fill="#767171" font-size="10" x="285.988" y="52.0232">,</tspan><tspan fill="#767171" font-size="10" x="291.157" y="52.0232">高度是</tspan><tspan fill="#767171" font-size="10" x="322.671" y="52.0232">(640, 672, 704, 736, 768, </tspan><tspan fill="#767171" font-size="10" x="78.229" y="64.0285">800)</tspan><tspan fill="#767171" font-size="10" x="98.9049" y="64.0285">中的一个，以下的高度以</tspan><tspan fill="#767171" font-size="10" x="214.456" y="64.0285">800</tspan><tspan fill="#767171" font-size="10" x="229.963" y="64.0285">为例，宽度不定</tspan><tspan fill="#767171" font-size="10" x="78.229" y="77.0343">“</tspan><tspan fill="#767171" font-size="10" x="88.7337" y="77.0343">tensor</tspan><tspan fill="#767171" font-size="10" x="119.747" y="77.0343">”</tspan><tspan fill="#767171" font-size="10" x="130.252" y="77.0343">: [tensor(</tspan><tspan fill="#767171" font-size="10" x="181.942" y="77.0343">batch_size</tspan><tspan fill="#767171" font-size="10" x="233.632" y="77.0343">, 3, 800, W) ], </tspan><tspan fill="#767171" font-size="10" x="316.335" y="77.0343">添加黑边</tspan><tspan fill="#767171" font-size="10" x="358.354" y="77.0343">, </tspan><tspan fill="#767171" font-size="10" x="368.692" y="77.0343">使得宽度整除</tspan><tspan fill="#767171" font-size="10" x="109.243" y="89.0396">size_divisibility</tspan><tspan fill="#767171" font-size="10" x="197.115" y="89.0396">=32, </tspan><tspan fill="#FF0000" font-size="10" x="222.96" y="89.0396">(</tspan><tspan fill="#FF0000" font-size="10" x="228.129" y="89.0396">由于</tspan><tspan fill="#FF0000" font-size="10" x="249.138" y="89.0396">H</tspan><tspan fill="#FF0000" font-size="10" x="254.307" y="89.0396">已是</tspan><tspan fill="#FF0000" font-size="10" x="275.317" y="89.0396">32</tspan><tspan fill="#FF0000" font-size="10" x="285.655" y="89.0396">的倍数</tspan><tspan fill="#FF0000" font-size="10" x="317.169" y="89.0396">,</tspan><tspan fill="#FF0000" font-size="10" x="322.338" y="89.0396">故只在图最右边添加黑边</tspan><tspan fill="#FF0000" font-size="10" x="437.889" y="89.0396">)</tspan><tspan fill="#FF0000" font-size="10" x="109.243" y="102.045">(</tspan><tspan fill="#FF0000" font-size="10" x="114.412" y="102.045">用</tspan><tspan fill="#FF0000" font-size="10" x="124.916" y="102.045">32</tspan><tspan fill="#FF0000" font-size="10" x="135.254" y="102.045">的原因是生成</tspan><tspan fill="#FF0000" font-size="10" x="203.451" y="102.045">mask_feats</tspan><tspan fill="#FF0000" font-size="10" x="255.141" y="102.045">时用了</tspan><tspan fill="#FF0000" font-size="10" x="286.655" y="102.045">p3,</tspan><tspan fill="#FF0000" font-size="10" x="307.331" y="102.045">p4, p5, 32</tspan><tspan fill="#FF0000" font-size="10" x="359.021" y="102.045">保证了模型产</tspan><tspan fill="#FF0000" font-size="10" x="109.243" y="115.051">生实列分割结果</tspan><tspan fill="#FF0000" font-size="10" x="182.776" y="115.051">(</tspan><tspan fill="#FF0000" font-size="10" x="187.945" y="115.051">像素分类</tspan><tspan fill="#FF0000" font-size="10" x="229.963" y="115.051">)</tspan><tspan fill="#FF0000" font-size="10" x="235.132" y="115.051">是没有偏移的</tspan><tspan fill="#FF0000" font-size="10" x="298.16" y="115.051">)</tspan><tspan fill="#767171" font-size="10" x="78.229" y="127.057">}]</tspan></text><rect x="87.5" y="341.348" width="67" height="19.9911" stroke="#000000" stroke-width="1.33393" stroke-miterlimit="8" fill="none"/><text font-family="SimHei,SimHei_MSFontService,sans-serif" font-weight="400" font-size="10" transform="matrix(1 0 0 0.999555 103.002 355)">特征图<tspan font-size="10" x="30.0134" y="0">1</tspan><tspan fill="#767171" font-size="10" x="70.7257" y="-1.00045">features</tspan><tspan fill="#767171" font-size="10" x="70.7257" y="11.0049">[</tspan><tspan fill="#767171" font-size="10" x="75.8947" y="11.0049">dic</tspan><tspan fill="#767171" font-size="10" x="91.4016" y="11.0049">:</tspan><tspan fill="#767171" font-size="10" x="96.5705" y="11.0049">{'p3':tensor(1, 256, 800/  8, W/  8),</tspan><tspan fill="#767171" font-size="10" x="75.8947" y="24.0107">'p4':tensor(1, 256, 800/ 16, W/ 16),</tspan><tspan fill="#767171" font-size="10" x="75.8947" y="36.016">'p5':tensor(1, 256, 800/ 32, W/ 32),</tspan><tspan fill="#767171" font-size="10" x="75.8947" y="49.0218">'p6':tensor(1, 256, 800/ 64, W/ 64),</tspan><tspan fill="#767171" font-size="10" x="75.8947" y="61.0272">'p7':tensor(1, 256, 800/128, W/128)}</tspan><tspan fill="#767171" font-size="10" x="261.978" y="61.0272">]</tspan></text><rect x="552.5" y="493.28" width="89.0001" height="19.9911" stroke="#000000" stroke-width="1.33393" stroke-miterlimit="8" fill="none"/><text font-family="SimHei,SimHei_MSFontService,sans-serif" font-weight="400" font-size="10" transform="matrix(1 0 0 0.999555 571.26 507)">遮罩特张图<tspan fill="#767171" font-size="10" x="90.7198" y="-3.00134">mask_feats</tspan><tspan fill="#767171" font-size="10" x="90.7198" y="9.00401">[Tensor(1,16,800/8, W/8)]</tspan><tspan fill="#767171" font-size="10" x="90.7198" y="22.0098">只是用了</tspan><tspan fill="#767171" font-size="10" x="132.739" y="22.0098">features</tspan><tspan fill="#767171" font-size="10" x="174.09" y="22.0098">中的前三层，由</tspan><tspan fill="#767171" font-size="10" x="247.623" y="22.0098">CONDINST.MASK_BRANCH. </tspan><tspan fill="#767171" font-size="10" x="90.7198" y="34.0151">IN_FEATURES</tspan><tspan fill="#767171" font-size="10" x="147.578" y="34.0151">控制</tspan></text><rect x="87.5" y="493.28" width="67" height="19.9911" stroke="#000000" stroke-width="1.33393" stroke-miterlimit="8" fill="none"/><text fill="#333333" font-family="SimHei,SimHei_MSFontService,sans-serif" font-weight="400" font-size="10" transform="matrix(1 0 0 0.999555 105.503 507)">提议框<tspan fill="#767171" font-size="10" x="68.9768" y="-3.00134">proposals</tspan><tspan fill="#767171" font-size="10" x="68.9768" y="9.00401">[List&lt;Instance{</tspan><tspan fill="#767171" font-size="10" x="94.8216" y="22.0098">(</tspan><tspan fill="#767171" font-size="10" x="99.9906" y="22.0098">仅预测时显示</tspan><tspan fill="#767171" font-size="10" x="163.019" y="22.0098">)</tspan><tspan fill="#767171" font-size="10" x="89.6527" y="34.0151">‘</tspan><tspan fill="#767171" font-size="10" x="100.157" y="34.0151">pred_boxes</tspan><tspan fill="#767171" font-size="10" x="151.847" y="34.0151">’: [Boxes: n] (</tspan><tspan fill="#767171" font-size="10" x="234.717" y="34.0151">Wmin</tspan><tspan fill="#767171" font-size="10" x="255.393" y="34.0151">, </tspan><tspan fill="#767171" font-size="10" x="265.731" y="34.0151">Hmin</tspan><tspan fill="#767171" font-size="10" x="286.407" y="34.0151">, </tspan><tspan fill="#767171" font-size="10" x="296.745" y="34.0151">Wmax</tspan><tspan fill="#767171" font-size="10" x="317.421" y="34.0151">, </tspan><tspan fill="#767171" font-size="10" x="327.759" y="34.0151">Hmax</tspan><tspan fill="#767171" font-size="10" x="348.435" y="34.0151">) </tspan><tspan fill="#767171" font-size="10" x="358.772" y="34.0151">预测边框</tspan><tspan fill="#767171" font-size="10" x="89.6527" y="47.0209">‘scores’: [Tensor: (n,)]  </tspan><tspan fill="#767171" font-size="10" x="234.717" y="47.0209">分类置信度</tspan><tspan fill="#767171" font-size="10" x="89.6527" y="59.0263">‘</tspan><tspan fill="#767171" font-size="10" x="100.157" y="59.0263">pred_classes</tspan><tspan fill="#767171" font-size="10" x="162.185" y="59.0263">’: [Tensor: (n,)] </tspan><tspan fill="#767171" font-size="10" x="260.562" y="59.0263">分类</tspan><tspan fill="#767171" font-size="10" x="89.6527" y="72.0321">‘locations’: [Tensor: (n,2)]  </tspan><tspan fill="#767171" font-size="10" x="255.393" y="72.0321">决定建议框的特征像素对应缩放前的位置</tspan><tspan fill="#767171" font-size="10" x="89.6527" y="84.0374">‘</tspan><tspan fill="#767171" font-size="10" x="100.157" y="84.0374">top_feat</tspan><tspan fill="#767171" font-size="10" x="141.509" y="84.0374">’: [Tensor: (n,233)]  </tspan><tspan fill="#767171" font-size="10" x="260.562" y="84.0374">用于计算动态卷积的特征</tspan><tspan fill="#767171" font-size="10" x="89.6527" y="97.0432">‘</tspan><tspan fill="#767171" font-size="10" x="100.157" y="97.0432">fpn_levels</tspan><tspan fill="#767171" font-size="10" x="151.847" y="97.0432">’: [Tensor: (n,)]] </tspan><tspan fill="#767171" font-size="10" x="255.393" y="97.0432">特征像素在哪层特征图之上</tspan><tspan fill="#2F5597" font-size="10" x="94.8216" y="110.049">(</tspan><tspan fill="#2F5597" font-size="10" x="99.9906" y="110.049">仅训练时</tspan><tspan fill="#2F5597" font-size="10" x="142.009" y="110.049">)</tspan><tspan fill="#2F5597" font-size="10" x="86.3178" y="121.054">‘labels’:[{Tensor: (n,)}] </tspan><tspan fill="#2F5597" font-size="10" x="231.382" y="121.054">分类</tspan><tspan fill="#2F5597" font-size="10" x="86.3178" y="134.06">‘</tspan><tspan fill="#2F5597" font-size="10" x="96.8225" y="134.06">gt_inds</tspan><tspan fill="#2F5597" font-size="10" x="133.005" y="134.06">’:[{Tensor: (n,)}] </tspan><tspan fill="#2F5597" font-size="10" x="236.551" y="134.06">属于哪一个物体</tspan><tspan fill="#2F5597" font-size="10" x="86.3178" y="146.065">‘</tspan><tspan fill="#2F5597" font-size="10" x="96.8225" y="146.065">im_inds</tspan><tspan fill="#2F5597" font-size="10" x="133.005" y="146.065">’:[{Tensor: (n,)}] </tspan><tspan fill="#2F5597" font-size="10" x="236.551" y="146.065">属于哪一张图片</tspan><tspan fill="#2F5597" font-size="10" x="86.3178" y="159.071">‘</tspan><tspan fill="#2F5597" font-size="10" x="96.8225" y="159.071">reg_targets</tspan><tspan fill="#2F5597" font-size="10" x="153.681" y="159.071">’:[{Tensor: (n,4)}] (left, top, right, bottom) </tspan><tspan fill="#2F5597" font-size="10" x="401.958" y="159.071">真实框的四</tspan><tspan fill="#2F5597" font-size="10" x="68.9768" y="172.077">边</tspan><tspan fill="#2F5597" font-size="10" x="79.4815" y="172.077">, (</tspan><tspan fill="#2F5597" font-size="10" x="94.9884" y="172.077">特征图上的距离</tspan><tspan fill="#2F5597" font-size="10" x="168.521" y="172.077">)</tspan><tspan fill="#2F5597" font-size="10" x="86.3178" y="184.082">‘locations’:[{Tensor: (n,2)}] </tspan><tspan fill="#2F5597" font-size="10" x="252.058" y="184.082">同上</tspan><tspan fill="#2F5597" font-size="10" x="86.3178" y="196.087">‘</tspan><tspan fill="#2F5597" font-size="10" x="96.8225" y="196.087">fpn_levels</tspan><tspan fill="#2F5597" font-size="10" x="148.512" y="196.087">’:[{Tensor: (n,)}] </tspan><tspan fill="#2F5597" font-size="10" x="252.058" y="196.087">同上</tspan><tspan fill="#2F5597" font-size="10" x="86.3178" y="209.093">'</tspan><tspan fill="#2F5597" font-size="10" x="91.4868" y="209.093">logits_pred</tspan><tspan fill="#2F5597" font-size="10" x="148.345" y="209.093">':[{Tensor: (n,80)}] </tspan><tspan fill="#2F5597" font-size="10" x="256.894" y="209.093">预测分类分数</tspan><tspan fill="#2F5597" font-size="10" x="319.922" y="209.093">[</tspan><tspan fill="#2F5597" font-size="10" x="325.091" y="209.093">-</tspan><tspan fill="#2F5597" font-size="10" x="330.26" y="209.093">inf, +inf]</tspan><tspan fill="#2F5597" font-size="10" x="86.3178" y="221.098">'</tspan><tspan fill="#2F5597" font-size="10" x="91.4868" y="221.098">reg_pred</tspan><tspan fill="#2F5597" font-size="10" x="132.839" y="221.098">':[{Tensor: (n,4)}]  </tspan><tspan fill="#2F5597" font-size="10" x="241.387" y="221.098">预测框的四边</tspan><tspan fill="#2F5597" font-size="10" x="304.415" y="221.098">, (</tspan><tspan fill="#2F5597" font-size="10" x="319.922" y="221.098">特征图上的距离</tspan><tspan fill="#2F5597" font-size="10" x="393.455" y="221.098">)</tspan><tspan fill="#2F5597" font-size="10" x="86.3178" y="234.104">‘</tspan><tspan fill="#2F5597" font-size="10" x="96.8225" y="234.104">ctrness_pred</tspan><tspan fill="#2F5597" font-size="10" x="158.85" y="234.104">’:[{Tensor: (n,)}]  </tspan><tspan fill="#2F5597" font-size="10" x="267.565" y="234.104">中心度的得分</tspan><tspan fill="#2F5597" font-size="10" x="86.3178" y="247.11">‘</tspan><tspan fill="#2F5597" font-size="10" x="96.8225" y="247.11">top_feats</tspan><tspan fill="#2F5597" font-size="10" x="143.343" y="247.11">’:[{Tensor: (n,233)}]  </tspan><tspan fill="#2F5597" font-size="10" x="267.565" y="247.11">用于动态卷积过程</tspan><tspan fill="#2F5597" font-size="10" x="86.3178" y="259.115">‘</tspan><tspan fill="#2F5597" font-size="10" x="96.8225" y="259.115">pos_inds</tspan><tspan fill="#2F5597" font-size="10" x="138.174" y="259.115">’:[{Tensor: (n,)}]  </tspan><tspan fill="#2F5597" font-size="10" x="246.889" y="259.115">记录目标有那些像素点决定</tspan><tspan fill="#2F5597" font-size="10" x="86.3178" y="272.121">‘</tspan><tspan fill="#2F5597" font-size="10" x="96.8225" y="272.121">gt_ctrs</tspan><tspan fill="#2F5597" font-size="10" x="133.005" y="272.121">’:[{Tensor: (n,)}]  </tspan><tspan fill="#2F5597" font-size="10" x="241.72" y="272.121">中心度真实标签</tspan><tspan fill="#767171" font-size="10" x="68.9768" y="285.127">}&gt;]</tspan><tspan fill="#767171" font-size="10" x="68.9768" y="297.132">训练时只使用了有目标的特征像素点来进行中心度和边框的损失计算，分类损失会计</tspan><tspan fill="#767171" font-size="10" x="68.9768" y="310.138">算所有像素，</tspan></text><path d="M120.833 68.4681 121.168 148.226 120.501 148.228 120.166 68.4709ZM124.831 146.877 120.863 154.894 116.827 146.91Z"/><path d="M121.833 174.422 121.834 334.757 121.167 334.757 121.166 174.422ZM125.502 333.423 121.5 341.423 117.498 333.423Z"/><path d="M121.833 361.339 121.834 486.772 121.167 486.772 121.166 361.339ZM125.502 485.439 121.5 493.439 117.498 485.439Z"/><path d="M0-0.333333 66.3831-0.333333 66.3831 475.55 66.0498 475.216 125.433 475.216 125.433 475.883 65.7164 475.883 65.7164 0 66.0498 0.333333 0 0.333333ZM124.1 471.55 132.1 475.55 124.1 479.55Z" transform="matrix(1.83779e-16 1 1.00045 -1.83697e-16 121.5 361.339)"/><rect x="563.5" y="155.431" width="66" height="18.9915" stroke="#000000" stroke-width="1.33393" stroke-miterlimit="8" fill="none"/><text font-family="SimHei,SimHei_MSFontService,sans-serif" font-weight="400" font-size="10" transform="matrix(1 0 0 0.999555 576.262 168)">实例标签<tspan fill="#767171" font-size="10" x="73.9792" y="2.00089">gt_instances</tspan><tspan fill="#767171" font-size="10" x="73.9792" y="14.0062">[List&lt;instance&gt;{ </tspan><tspan fill="#767171" font-size="10" x="94.655" y="27.012">‘</tspan><tspan fill="#767171" font-size="10" x="105.16" y="27.012">gt_boxes</tspan><tspan fill="#767171" font-size="10" x="146.511" y="27.012">’ [Boxes: n] n</tspan><tspan fill="#767171" font-size="10" x="224.213" y="27.012">个实例</tspan><tspan fill="#767171" font-size="10" x="94.655" y="39.0174">‘</tspan><tspan fill="#767171" font-size="10" x="105.16" y="39.0174">gt_classes</tspan><tspan fill="#767171" font-size="10" x="156.849" y="39.0174">’ [Tensor: (n,)] </tspan><tspan fill="#767171" font-size="10" x="250.058" y="39.0174">类别</tspan><tspan fill="#767171" font-size="10" x="94.655" y="52.0232">‘</tspan><tspan fill="#767171" font-size="10" x="105.16" y="52.0232">gt_bitmasks</tspan><tspan fill="#767171" font-size="10" x="162.018" y="52.0232">’ [Tensor: (n, H/4, W/4)]  </tspan><tspan fill="#767171" font-size="10" x="306.916" y="52.0232">的采样值，</tspan><tspan fill="#767171" font-size="10" x="359.44" y="52.0232">4</tspan><tspan fill="#767171" font-size="10" x="364.609" y="52.0232">倍由配置</tspan><tspan fill="#767171" font-size="10" x="130.838" y="64.0285">CONDINST.MASK_OUT_STRIDE</tspan><tspan fill="#767171" font-size="10" x="254.893" y="64.0285">决定</tspan><tspan fill="#767171" font-size="10" x="94.655" y="77.0343">‘</tspan><tspan fill="#767171" font-size="10" x="105.16" y="77.0343">gt_bitmasks_full</tspan><tspan fill="#767171" font-size="10" x="187.863" y="77.0343">’ [Tensor: (n, H, W)] </tspan><tspan fill="#767171" font-size="10" x="306.916" y="77.0343">将每个实例框内全填成</tspan><tspan fill="#767171" font-size="10" x="417.132" y="77.0343">1</tspan><tspan fill="#767171" font-size="10" x="94.655" y="89.0396">‘</tspan><tspan fill="#767171" font-size="10" x="105.16" y="89.0396">image_color_similarity</tspan><tspan fill="#767171" font-size="10" x="218.877" y="89.0396">’ [Tensor: (n, 8, H/4, W/4)] 8</tspan><tspan fill="#767171" font-size="10" x="379.282" y="89.0396">个方向上的颜</tspan><tspan fill="#767171" font-size="10" x="130.838" y="102.045">色相似度关系</tspan><tspan fill="#767171" font-size="10" x="73.9792" y="115.051">}]</tspan></text><path d="M0-0.333333 43.7744-0.333333 43.7744 475.912 43.4411 475.579 80.215 475.579 80.215 476.245 43.1078 476.245 43.1078 0 43.4411 0.333333 0 0.333333ZM78.8817 471.912 86.8817 475.912 78.8817 479.912Z" transform="matrix(1.83779e-16 1 1.00045 -1.83697e-16 120.5 68.4695)"/><rect x="87.5" y="929.086" width="67" height="18.9915" stroke="#000000" stroke-width="1.33393" stroke-miterlimit="8" fill="none"/><text font-family="SimHei,SimHei_MSFontService,sans-serif" font-weight="400" font-size="10" transform="matrix(1 0 0 0.999555 100.501 942)">预测结果<tspan fill="#767171" font-size="10" x="73.2268" y="-1.00045">pred_instances_w_masks</tspan><tspan fill="#767171" font-size="10" x="73.2268" y="11.0049">Instance{</tspan><tspan fill="#767171" font-size="10" x="88.2335" y="23.0102">'</tspan><tspan fill="#767171" font-size="10" x="93.4024" y="23.0102">pred_boxes</tspan><tspan fill="#767171" font-size="10" x="145.092" y="23.0102">'= {Boxes: n} (</tspan><tspan fill="#767171" font-size="10" x="222.627" y="23.0102">Wmin</tspan><tspan fill="#767171" font-size="10" x="243.302" y="23.0102">, </tspan><tspan fill="#767171" font-size="10" x="253.64" y="23.0102">Hmin</tspan><tspan fill="#767171" font-size="10" x="274.316" y="23.0102">, </tspan><tspan fill="#767171" font-size="10" x="284.654" y="23.0102">Wmax</tspan><tspan fill="#767171" font-size="10" x="305.33" y="23.0102">, </tspan><tspan fill="#767171" font-size="10" x="315.668" y="23.0102">Hmax</tspan><tspan fill="#767171" font-size="10" x="336.344" y="23.0102">) </tspan><tspan fill="#767171" font-size="10" x="346.682" y="23.0102">预测边框</tspan><tspan fill="#767171" font-size="10" x="88.2335" y="36.016">'scores'= {Tensor: (n,)}</tspan><tspan fill="#767171" font-size="10" x="212.289" y="36.016">分类置信度</tspan><tspan fill="#767171" font-size="10" x="88.2335" y="48.0214">'</tspan><tspan fill="#767171" font-size="10" x="93.4024" y="48.0214">pred_classes</tspan><tspan fill="#767171" font-size="10" x="155.43" y="48.0214">'= {Tensor: (n,)}</tspan><tspan fill="#767171" font-size="10" x="243.302" y="48.0214">分类</tspan><tspan fill="#767171" font-size="10" x="88.2335" y="61.0272">'locations' = {Tensor: (n,2)}</tspan><tspan fill="#767171" font-size="10" x="238.134" y="61.0272">决定建议框的特征像素对应缩放前的位置</tspan><tspan fill="#767171" font-size="10" x="88.2335" y="73.0325">'</tspan><tspan fill="#767171" font-size="10" x="93.4024" y="73.0325">top_feat</tspan><tspan fill="#767171" font-size="10" x="134.754" y="73.0325">'= {Tensor: (n,233)}</tspan><tspan fill="#767171" font-size="10" x="238.134" y="73.0325">用于计算动态卷积的特</tspan><tspan fill="#767171" font-size="10" x="88.2335" y="86.0383">'</tspan><tspan fill="#767171" font-size="10" x="93.4024" y="86.0383">fpn_levels</tspan><tspan fill="#767171" font-size="10" x="145.092" y="86.0383">'= {Tensor: (n,)} </tspan><tspan fill="#767171" font-size="10" x="238.134" y="86.0383">特征像素在哪层特征图之上</tspan><tspan fill="#767171" font-size="10" x="88.2335" y="98.0436">'</tspan><tspan fill="#767171" font-size="10" x="93.4024" y="98.0436">im_inds</tspan><tspan fill="#767171" font-size="10" x="129.585" y="98.0436">'= {Tensor: (n,)}</tspan><tspan fill="#767171" font-size="10" x="217.458" y="98.0436">属于哪一张图片</tspan><tspan fill="#767171" font-size="10" x="88.2335" y="111.049">'</tspan><tspan fill="#767171" font-size="10" x="93.4024" y="111.049">mask_head_params</tspan><tspan fill="#767171" font-size="10" x="176.106" y="111.049">' = (Tensor: (n,233)} </tspan><tspan fill="#767171" font-size="10" x="289.823" y="111.049">用于动态卷积的特征</tspan><tspan fill="#767171" font-size="10" x="88.2335" y="123.055">'</tspan><tspan fill="#767171" font-size="10" x="93.4024" y="123.055">pred_global_masks</tspan><tspan fill="#767171" font-size="10" x="181.275" y="123.055">' = {Tensor: (n,1,H/4,W/4)}</tspan><tspan fill="#767171" font-size="10" x="320.837" y="123.055">每一个框的分割掩码</tspan><tspan fill="#767171" font-size="10" x="73.2268" y="137.061">}</tspan></text><path d="M0.333333-0.000353588 0.68878 335.085 0.0221138 335.086-0.333333 0.000353588ZM4.35403 333.749 0.36252 341.753-3.64596 333.757Z" transform="matrix(-1.00045 0 0 1 120.863 513.271)"/><path d="M597.047 513.271 597.047 865.263 137.17 865.263 137.17 864.597 596.714 864.597 596.38 864.93 596.38 513.271ZM138.504 868.93 130.5 864.93 138.504 860.93Z"/><path d="M110.5 865.115C110.5 859.594 114.977 855.119 120.5 855.119 126.023 855.119 130.5 859.594 130.5 865.115 130.5 870.635 126.023 875.11 120.5 875.11 114.977 875.11 110.5 870.635 110.5 865.115Z" stroke="#000000" stroke-width="1.33393" stroke-miterlimit="8" fill="none" fill-rule="evenodd"/><path d="M120.833 875.108 121.151 922.333 120.484 922.337 120.166 875.112ZM124.81 920.975 120.863 929.001 116.807 921.029Z"/><text font-family="SimHei,SimHei_MSFontService,sans-serif" font-weight="400" font-size="10" transform="matrix(1 0 0 0.999555 139.662 877)">动态卷积</text><path d="M0 0 14.0089 14.0089" stroke="#000000" stroke-width="0.666667" stroke-miterlimit="8" fill="none" fill-rule="evenodd" transform="matrix(-1.00045 0 0 1 127.515 858.118)"/><path d="M113.5 858.118 127.515 872.127" stroke="#000000" stroke-width="0.666964" stroke-miterlimit="8" fill="none" fill-rule="evenodd"/></g></svg>