<svg id="SvgjsSvg1247" width="379.6666259765625" height="418.09375" xmlns="http://www.w3.org/2000/svg" version="1.1" xmlns:xlink="http://www.w3.org/1999/xlink" xmlns:svgjs="http://svgjs.com/svgjs"><defs id="SvgjsDefs1248"><marker id="SvgjsMarker1283" markerWidth="14" markerHeight="10" refX="10" refY="5" viewBox="0 0 14 10" orient="auto" markerUnits="userSpaceOnUse" stroke-dasharray="0,0"><path id="SvgjsPath1284" d="M0,0 L14,5 L0,10 L0,0" fill="#323232" stroke="#323232" stroke-width="1"></path></marker><marker id="SvgjsMarker1287" markerWidth="14" markerHeight="10" refX="10" refY="5" viewBox="0 0 14 10" orient="auto" markerUnits="userSpaceOnUse" stroke-dasharray="0,0"><path id="SvgjsPath1288" d="M0,0 L14,5 L0,10 L0,0" fill="#323232" stroke="#323232" stroke-width="1"></path></marker><marker id="SvgjsMarker1291" markerWidth="14" markerHeight="10" refX="10" refY="5" viewBox="0 0 14 10" orient="auto" markerUnits="userSpaceOnUse" stroke-dasharray="0,0"><path id="SvgjsPath1292" d="M0,0 L14,5 L0,10 L0,0" fill="#323232" stroke="#323232" stroke-width="1"></path></marker><marker id="SvgjsMarker1319" markerWidth="14" markerHeight="10" refX="10" refY="5" viewBox="0 0 14 10" orient="auto" markerUnits="userSpaceOnUse" stroke-dasharray="0,0"><path id="SvgjsPath1320" d="M0,0 L14,5 L0,10 L0,0" fill="#323232" stroke="#323232" stroke-width="1"></path></marker><marker id="SvgjsMarker1323" markerWidth="14" markerHeight="10" refX="10" refY="5" viewBox="0 0 14 10" orient="auto" markerUnits="userSpaceOnUse" stroke-dasharray="0,0"><path id="SvgjsPath1324" d="M0,0 L14,5 L0,10 L0,0" fill="#323232" stroke="#323232" stroke-width="1"></path></marker></defs><g id="SvgjsG1249" transform="translate(24.999959309896212,25.000013563368185)"><path id="SvgjsPath1250" d="M 0 0L 323.33333333333303 0L 323.33333333333303 278.222195095486L 0 278.222195095486Z" stroke="rgba(50,50,50,1)" stroke-width="2" fill-opacity="1" fill="#ffffff"></path><g id="SvgjsG1251"><text id="SvgjsText1252" font-family="微软雅黑" text-anchor="middle" font-size="13px" width="304px" fill="#323232" font-weight="400" align="middle" lineHeight="125%" anchor="middle" family="微软雅黑" size="13px" weight="400" font-style="" opacity="1" y="128.486097547743" transform="rotate(0)"></text></g></g><g id="SvgjsG1253" transform="translate(56.333292643229015,59.99999999999994)"><path id="SvgjsPath1254" d="M 0 4Q 0 0 4 0L 252.66666666666697 0Q 256.66666666666697 0 256.66666666666697 4L 256.66666666666697 129.88887532552087Q 256.66666666666697 133.88887532552087 252.66666666666697 133.88887532552087L 4 133.88887532552087Q 0 133.88887532552087 0 129.88887532552087Z" stroke-dasharray="3,4" stroke="rgba(50,50,50,1)" stroke-width="2" fill-opacity="1" fill="#ffffff"></path><g id="SvgjsG1255"><text id="SvgjsText1256" font-family="微软雅黑" text-anchor="middle" font-size="15px" width="237px" fill="#323232" font-weight="400" align="middle" lineHeight="125%" anchor="middle" family="微软雅黑" size="15px" weight="400" font-style="" opacity="1" y="54.569437662760436" transform="rotate(0)"></text></g></g><g id="SvgjsG1257" transform="translate(56.333292643229015,245.94443766276038)"><path id="SvgjsPath1258" d="M 0 4Q 0 0 4 0L 252.66666666666697 0Q 256.66666666666697 0 256.66666666666697 4L 256.66666666666697 31Q 256.66666666666697 35 252.66666666666697 35L 4 35Q 0 35 0 31Z" stroke="rgba(50,50,50,1)" stroke-width="2" fill-opacity="1" fill="#ffffff"></path><g id="SvgjsG1259"><text id="SvgjsText1260" font-family="微软雅黑" text-anchor="middle" font-size="15px" width="237px" fill="#323232" font-weight="400" align="middle" lineHeight="125%" anchor="middle" family="微软雅黑" size="15px" weight="400" font-style="" opacity="1" y="5.125" transform="rotate(0)"><tspan id="SvgjsTspan1261" dy="18" x="128.5"><tspan id="SvgjsTspan1262" style="text-decoration:;">后台守护进程</tspan></tspan></text></g></g><g id="SvgjsG1263" transform="translate(24.999959309895985,353.0973124098125)"><path id="SvgjsPath1264" d="M 0 4Q 0 0 4 0L 72.66666666666697 0Q 76.66666666666697 0 76.66666666666697 4L 76.66666666666697 31.888875325520985Q 76.66666666666697 35.888875325520985 72.66666666666697 35.888875325520985L 4 35.888875325520985Q 0 35.888875325520985 0 31.888875325520985Z" stroke="rgba(50,50,50,1)" stroke-width="2" fill-opacity="1" fill="#ffffff"></path><g id="SvgjsG1265"><text id="SvgjsText1266" font-family="微软雅黑" text-anchor="middle" font-size="15px" width="57px" fill="#323232" font-weight="400" align="middle" lineHeight="125%" anchor="middle" family="微软雅黑" size="15px" weight="400" font-style="" opacity="1" y="5.5694376627604925" transform="rotate(0)"><tspan id="SvgjsTspan1267" dy="18" x="38.5"><tspan id="SvgjsTspan1268" style="text-decoration:;">客户端1</tspan></tspan></text></g></g><g id="SvgjsG1269" transform="translate(271.6666259765627,353.0973124098125)"><path id="SvgjsPath1270" d="M 0 4Q 0 0 4 0L 78.66666666666652 0Q 82.66666666666652 0 82.66666666666652 4L 82.66666666666652 31.888875325520985Q 82.66666666666652 35.888875325520985 78.66666666666652 35.888875325520985L 4 35.888875325520985Q 0 35.888875325520985 0 31.888875325520985Z" stroke="rgba(50,50,50,1)" stroke-width="2" fill-opacity="1" fill="#ffffff"></path><g id="SvgjsG1271"><text id="SvgjsText1272" font-family="微软雅黑" text-anchor="middle" font-size="15px" width="63px" fill="#323232" font-weight="400" align="middle" lineHeight="125%" anchor="middle" family="微软雅黑" size="15px" weight="400" font-style="" opacity="1" y="5.5694376627604925" transform="rotate(0)"><tspan id="SvgjsTspan1273" dy="18" x="41.5"><tspan id="SvgjsTspan1274" style="text-decoration:;">客户端n</tspan></tspan></text></g></g><g id="SvgjsG1275" transform="translate(126.66662597656273,353.0973124098125)"><path id="SvgjsPath1276" d="M 0 0L 120 0L 120 40L 0 40Z" stroke="none" fill="none"></path><g id="SvgjsG1277"><text id="SvgjsText1278" font-family="微软雅黑" text-anchor="middle" font-size="15px" width="120px" fill="#323232" font-weight="400" align="middle" lineHeight="125%" anchor="middle" family="微软雅黑" size="15px" weight="400" font-style="" opacity="1" y="7.625" transform="rotate(0)"><tspan id="SvgjsTspan1279" dy="18" x="60"><tspan id="SvgjsTspan1280" style="text-decoration:;">. . .</tspan></tspan></text></g></g><g id="SvgjsG1281"><path id="SvgjsPath1282" d="M184.6666259765625 244.94443766276038L184.6666259765625 213.88888549804676L125.33329264322924 213.88888549804676L125.33329264322924 185.43333333333322" stroke="#323232" stroke-width="2" fill="none" marker-end="url(#SvgjsMarker1283)"></path></g><g id="SvgjsG1285"><path id="SvgjsPath1286" d="M184.6666259765625 244.94443766276038L184.6666259765625 213.88888549804676L243.99995930989553 213.88888549804676L243.99995930989553 185.43333333333322" stroke="#323232" stroke-width="2" fill="none" marker-end="url(#SvgjsMarker1287)"></path></g><g id="SvgjsG1289"><path id="SvgjsPath1290" d="M184.6666259765625 244.94443766276038L184.6666259765625 195.5277811686197L196.66662597656136 195.5277811686197L196.66662597656136 148.71112467447904" stroke="#323232" stroke-width="2" fill="none" marker-end="url(#SvgjsMarker1291)"></path></g><g id="SvgjsG1293" transform="translate(75.33329264322924,110.8333333333334)"><path id="SvgjsPath1294" d="M 8 8Q 8 0 16 0L 92 0Q 100 0 100 8L 100 55Q 100 63 92 63L 92 63" stroke="rgba(50,50,50,1)" stroke-width="2" fill-opacity="1" fill="#ffffff"></path><path id="SvgjsPath1295" d="M 0 16Q 0 8 8 8L 84 8Q 92 8 92 16L 92 63Q 92 71 84 71L 8 71Q 0 71 0 63L 0 16Z" stroke="rgba(50,50,50,1)" stroke-width="2" fill-opacity="1" fill="#ffffff"></path><path id="SvgjsPath1296" d="M 0 4Q 0 0 4 0L 96 0Q 100 0 100 4L 100 67Q 100 71 96 71L 4 71Q 0 71 0 67Z" stroke="none" fill="none"></path><g id="SvgjsG1297"><text id="SvgjsText1298" font-family="微软雅黑" text-anchor="middle" font-size="15px" width="67px" fill="#323232" font-weight="400" align="middle" lineHeight="125%" anchor="middle" family="微软雅黑" size="15px" weight="400" font-style="" opacity="1" y="27.125" transform="rotate(0)"><tspan id="SvgjsTspan1299" dy="18" x="46.16666666666667"><tspan id="SvgjsTspan1300" style="text-decoration:;">tomcat</tspan></tspan></text></g></g><g id="SvgjsG1301" transform="translate(146.66662597656136,74.11112467447913)"><path id="SvgjsPath1302" d="M 8 8Q 8 0 16 0L 92 0Q 100 0 100 8L 100 55Q 100 63 92 63L 92 63" stroke="rgba(50,50,50,1)" stroke-width="2" fill-opacity="1" fill="#ffffff"></path><path id="SvgjsPath1303" d="M 0 16Q 0 8 8 8L 84 8Q 92 8 92 16L 92 63Q 92 71 84 71L 8 71Q 0 71 0 63L 0 16Z" stroke="rgba(50,50,50,1)" stroke-width="2" fill-opacity="1" fill="#ffffff"></path><path id="SvgjsPath1304" d="M 0 4Q 0 0 4 0L 96 0Q 100 0 100 4L 100 67Q 100 71 96 71L 4 71Q 0 71 0 67Z" stroke="none" fill="none"></path><g id="SvgjsG1305"><text id="SvgjsText1306" font-family="微软雅黑" text-anchor="middle" font-size="15px" width="67px" fill="#323232" font-weight="400" align="middle" lineHeight="125%" anchor="middle" family="微软雅黑" size="15px" weight="400" font-style="" opacity="1" y="27.125" transform="rotate(0)"><tspan id="SvgjsTspan1307" dy="18" x="46.16666666666667"><tspan id="SvgjsTspan1308" style="text-decoration:;">mysql</tspan></tspan></text></g></g><g id="SvgjsG1309" transform="translate(193.99995930989553,110.8333333333334)"><path id="SvgjsPath1310" d="M 8 8Q 8 0 16 0L 92 0Q 100 0 100 8L 100 55Q 100 63 92 63L 92 63" stroke="rgba(50,50,50,1)" stroke-width="2" fill-opacity="1" fill="#ffffff"></path><path id="SvgjsPath1311" d="M 0 16Q 0 8 8 8L 84 8Q 92 8 92 16L 92 63Q 92 71 84 71L 8 71Q 0 71 0 63L 0 16Z" stroke="rgba(50,50,50,1)" stroke-width="2" fill-opacity="1" fill="#ffffff"></path><path id="SvgjsPath1312" d="M 0 4Q 0 0 4 0L 96 0Q 100 0 100 4L 100 67Q 100 71 96 71L 4 71Q 0 71 0 67Z" stroke="none" fill="none"></path><g id="SvgjsG1313"><text id="SvgjsText1314" font-family="微软雅黑" text-anchor="middle" font-size="15px" width="67px" fill="#323232" font-weight="400" align="middle" lineHeight="125%" anchor="middle" family="微软雅黑" size="15px" weight="400" font-style="" opacity="1" y="27.125" transform="rotate(0)"><tspan id="SvgjsTspan1315" dy="18" x="46.16666666666667"><tspan id="SvgjsTspan1316" style="text-decoration:;">nginx</tspan></tspan></text></g></g><g id="SvgjsG1317"><path id="SvgjsPath1318" d="M63.33329264322947 352.0973124098125L63.33329264322947 317.02087503628644L184.6666259765625 317.02087503628644L184.6666259765625 284.5444376627604" stroke="#323232" stroke-width="2" fill="none" marker-end="url(#SvgjsMarker1319)"></path></g><g id="SvgjsG1321"><path id="SvgjsPath1322" d="M312.999959309896 352.0973124098125L312.999959309896 317.02087503628644L184.6666259765625 317.02087503628644L184.6666259765625 284.5444376627604" stroke="#323232" stroke-width="2" fill="none" marker-end="url(#SvgjsMarker1323)"></path></g><g id="SvgjsG1325" transform="translate(28.999959309895758,27.222208658854157)"><path id="SvgjsPath1326" d="M 0 0L 66.66666666666674 0L 66.66666666666674 25.333333333333343L 0 25.333333333333343Z" stroke="none" fill="none"></path><g id="SvgjsG1327"><text id="SvgjsText1328" font-family="微软雅黑" text-anchor="middle" font-size="16px" width="67px" fill="#323232" font-weight="700" align="middle" lineHeight="125%" anchor="middle" family="微软雅黑" size="16px" weight="700" font-style="" opacity="1" y="-1.3333333333333286" transform="rotate(0)"><tspan id="SvgjsTspan1329" dy="20" x="33.5"><tspan id="SvgjsTspan1330" style="text-decoration:;fill: rgb(229, 115, 115);">服务</tspan><tspan id="SvgjsTspan1331" style="text-decoration:;fill: rgb(255, 183, 77);">器</tspan></tspan></text></g></g></svg>